<svg width="250" height="250" viewBox="0 0 250 250" fill="none" xmlns="http://www.w3.org/2000/svg">
<path d="M137.654 57.6C119.887 57.6 102.848 64.6491 90.284 77.1953C77.7205 89.7414 70.6617 106.757 70.6617 124.5C70.6617 142.243 77.7205 159.259 90.284 171.805C102.848 184.351 119.887 191.4 137.654 191.4V236C108.042 236 79.6417 224.253 58.7025 203.343C37.7632 182.432 26 154.072 26 124.5C26 94.9284 37.7632 66.5676 58.7025 45.6573C79.6417 24.747 108.042 13 137.654 13V57.6Z" fill="white"/>
<path d="M224 102.2V210.727H179.338V146.8H137.654V102.2H224Z" fill="white"/>
</svg>
