<svg width="50" height="40" viewBox="0 0 50 40" fill="none" xmlns="http://www.w3.org/2000/svg">
<path d="M28.6597 37.1479L30.474 40C43.0264 31.373 50 20.891 50 12.264C50 3.9222 44.0016 0 38.9115 0C32.4958 0 27.9635 5.56272 27.9635 11.4084C27.9635 16.3276 31.0319 20.5351 35.1468 22.1048C36.3318 22.5338 37.4476 22.8897 37.4476 24.9569C37.4476 27.5945 35.5641 31.5145 28.6597 37.1479ZM0.975185 37.1479L2.78943 40C15.2035 31.373 22.3155 20.891 22.3155 12.264C22.3155 3.9222 16.1787 0 11.0885 0C4.60368 0 -3.8147e-06 5.56272 -3.8147e-06 11.4084C-3.8147e-06 16.3276 3.13755 20.5351 7.3931 22.1048C8.57806 22.5338 9.62465 22.8897 9.62465 24.9569C9.62465 27.5945 7.67205 31.5167 0.977413 37.1502L0.975185 37.1479Z" fill="#FBFBFB"/>
</svg>
