<svg width="35" height="32" viewBox="0 0 35 32" fill="none" xmlns="http://www.w3.org/2000/svg">
<path d="M30.9985 5.01454L29.8263 4.5588L27.0375 3.48226L23.8508 2.24064L20.9831 1.12462L18.4739 0.148547C17.9692 -0.0495158 17.4085 -0.0495158 16.9038 0.148547L4.3936 5.01454C4.07348 5.17609 3.80775 5.42812 3.62934 5.7394C3.45093 6.05068 3.36768 6.40753 3.38992 6.76573V28.4223H1.98834C1.73794 28.3947 1.48455 28.4203 1.24469 28.4973C1.00483 28.5744 0.783885 28.7012 0.59627 28.8694C0.408655 29.0377 0.258584 29.2437 0.155843 29.474C0.0531021 29.7042 0 29.9536 0 30.2058C0 30.4579 0.0531021 30.7073 0.155843 30.9375C0.258584 31.1678 0.408655 31.3738 0.59627 31.5421C0.783885 31.7104 1.00483 31.8372 1.24469 31.9142C1.48455 31.9913 1.73794 32.0168 1.98834 31.9892H33.4037C33.8425 31.9409 34.248 31.7322 34.5426 31.4031C34.8371 31.074 35 30.6476 35 30.2058C35 29.7639 34.8371 29.3375 34.5426 29.0084C34.248 28.6793 33.8425 28.4706 33.4037 28.4223H32.0057V6.76573C32.0277 6.40715 31.9439 6.05003 31.7648 5.7387C31.5857 5.42738 31.3193 5.17557 30.9985 5.01454ZM16.2873 26.0359L6.22533 26.2979V23.7859L16.3016 22.9965L16.2873 26.0359ZM16.2873 19.9678L6.22533 21.2848V18.7728L16.3016 16.9283L16.2873 19.9678ZM16.2873 13.8996L6.22533 16.2681V13.7561L16.3016 10.8566L16.2873 13.8996ZM16.2873 7.83151L6.22533 11.2549V8.78964L16.2873 4.86383V7.83151Z" fill="#FBFBFB"/>
</svg>
