<?xml version="1.0" encoding="utf-8"?>
<svg width="800px" height="800px" viewBox="0 0 48 48" xmlns="http://www.w3.org/2000/svg">
  <title>code-programming-solid</title>
  <rect width="48" height="48" fill="#f0db50"/>
  <path fill="#333333" d="M18.3,27.5A2,2,0,0,1,17,31a1.9,1.9,0,0,1-1.3-.5l-6-5a2,2,0,0,1,0-3l6-5a2,2,0,1,1,2.6,3L14,24Zm9.6-12-4,18A1.9,1.9,0,0,1,22,35h-.5a1.9,1.9,0,0,1-1.4-2.4l4-18a2,2,0,1,1,3.8,1Zm10.4,10-6,5A1.9,1.9,0,0,1,31,31a2,2,0,0,1-1.3-3.5L34,24l-4.3-3.5a2,2,0,0,1,2.6-3l6,5a2,2,0,0,1,0,3Z"/>
</svg>
