<svg width="28" height="32" viewBox="0 0 28 32" fill="none" xmlns="http://www.w3.org/2000/svg">
<path fill-rule="evenodd" clip-rule="evenodd" d="M5.25021 0C2.34949 0 0 2.38669 0 5.33333V26.6667C0 29.61 2.34949 32 5.25021 32H22.7498C25.6505 32 28 29.61 28 26.6667V5.33333C28 2.38669 25.6505 0 22.7498 0H5.25021ZM21.2764 20.1766C21.2764 20.8166 20.7678 21.3333 20.1377 21.3333H15.6948C15.0681 21.3333 14.5595 20.8166 14.5595 20.1766C14.5595 19.5366 15.0681 19.02 15.6948 19.02H20.1377C20.7678 19.02 21.2764 19.54 21.2764 20.1766ZM10.3757 11.0033C9.92941 10.55 9.2108 10.55 8.76453 11.0033C8.32154 11.4533 8.32154 12.1866 8.76453 12.6366L12.0754 16L8.76453 19.36C8.32154 19.81 8.32154 20.5433 8.76453 20.9933C9.2108 21.4466 9.92941 21.4466 10.3757 20.9933L14.4873 16.8166C14.9335 16.3633 14.9335 15.6333 14.4873 15.1799L10.3757 11.0033Z" fill="white"/>
</svg>
