<svg width="24" height="31" viewBox="0 0 24 31" fill="none" xmlns="http://www.w3.org/2000/svg">
<path d="M20.7018 3.60033C19.5621 2.45944 18.2064 1.55395 16.713 0.936036C15.2195 0.318122 13.6177 0 12 0C10.3823 0 8.7805 0.318122 7.28703 0.936036C5.79357 1.55395 4.43792 2.45944 3.29819 3.60033C2.2144 4.69763 1.36418 6.00065 0.798242 7.43163C0.232308 8.86261 -0.0377312 10.3922 0.00423918 11.9292C0.0921226 15.8808 2.85877 19.1334 5.78643 22.578C7.90235 25.0666 10.0904 27.6415 11.6592 30.7895C11.6906 30.8527 11.7391 30.9059 11.7994 30.9431C11.8596 30.9803 11.9291 31 12 31C12.0709 31 12.1404 30.9803 12.2006 30.9431C12.2609 30.9059 12.3094 30.8527 12.3408 30.7895C13.9096 27.6415 16.0976 25.0676 18.2136 22.578C21.1412 19.1334 23.9079 15.8808 23.9958 11.9295C24.0378 10.3925 23.7677 8.86282 23.2018 7.43178C22.6359 6.00075 21.7856 4.69767 20.7018 3.60033ZM12 18.1214C10.766 18.1214 9.55977 17.7578 8.53376 17.0765C7.50775 16.3953 6.70808 15.427 6.23586 14.2941C5.76364 13.1612 5.64009 11.9146 5.88082 10.712C6.12156 9.50931 6.71577 8.40459 7.58832 7.53752C8.46086 6.67045 9.57256 6.07997 10.7828 5.84075C11.9931 5.60153 13.2475 5.7243 14.3876 6.19356C15.5276 6.66281 16.502 7.45747 17.1876 8.47703C17.8731 9.4966 18.239 10.6953 18.239 11.9215C18.2371 13.5652 17.5791 15.1411 16.4095 16.3033C15.2399 17.4656 13.6541 18.1194 12 18.1214Z" fill="#FBFBFB"/>
</svg>
