<svg width="24" height="31" viewBox="0 0 24 31" fill="none" xmlns="http://www.w3.org/2000/svg">
<path fill-rule="evenodd" clip-rule="evenodd" d="M2.61892 17.8604C3.79151 17.2902 5.07391 17.205 5.91549 17.205H22.3099V20.5786H5.91549C5.23594 20.5786 4.57468 20.6621 4.09938 20.8931C3.73358 21.071 3.45241 21.3314 3.36545 21.9822L0.0148257 21.5364C0.265896 19.6571 1.33684 18.4837 2.61892 17.8604Z" fill="white"/>
<path d="M6.42253 23.9521C6.42253 23.5795 6.72521 23.2774 7.09859 23.2774H13.1831C13.5565 23.2774 13.8592 23.5795 13.8592 23.9521V30.662C13.8592 30.9466 13.5278 31.1033 13.3071 30.9231L10.5689 28.6873C10.3199 28.4839 9.96177 28.4839 9.71274 28.6873L6.97461 30.9231C6.7539 31.1033 6.42253 30.9466 6.42253 30.662V23.9521Z" fill="white"/>
<path fill-rule="evenodd" clip-rule="evenodd" d="M17.5775 27.3257H21.9718C23.092 27.3257 24 26.4194 24 25.3015L24 2.02412C24 0.906233 23.092 1.08993e-06 21.9718 1.18766e-06L6.08451 0C4.02002 1.80123e-07 2.44479 0.779696 1.40698 1.97237C0.41156 3.11633 -1.0508e-07 4.53545 0 5.73503L1.72606e-06 21.7593C1.69612e-06 23.2577 0.651324 25.1523 2.33179 26.3671C3.08776 26.9135 4.14448 26.7449 4.69203 25.9904C5.23959 25.236 5.07063 24.1814 4.31466 23.6349C3.67521 23.1727 3.38028 22.3943 3.38028 21.7593L3.38028 5.73503C3.38028 5.24784 3.56027 4.64282 3.95921 4.18435C4.31577 3.77459 4.93772 3.37354 6.08451 3.37354L20.6197 3.37354V23.9521H17.5775C16.644 23.9521 15.8873 24.7073 15.8873 25.6389C15.8873 26.5705 16.644 27.3257 17.5775 27.3257Z" fill="white"/>
</svg>
