<svg width="64" height="62" viewBox="0 0 64 62" fill="none" xmlns="http://www.w3.org/2000/svg">
<path d="M62.466 28.5565C63.8573 27.1856 64.3489 25.174 63.7479 23.3065C63.1477 21.4389 61.5799 20.1036 59.6561 19.8207L44.9365 17.6598C44.154 17.5447 43.4775 17.0487 43.1279 16.3323L36.5452 2.85493C35.6851 1.09395 33.9436 0 32.0002 0C30.0562 0 28.3146 1.09395 27.4552 2.85493L20.8712 16.333C20.5215 17.0487 19.8458 17.5447 19.0638 17.6598L4.34298 19.8207C2.42043 20.1036 0.852702 21.4389 0.251784 23.3058C-0.348483 25.1734 0.142408 27.1856 1.5337 28.5565L12.1855 39.0468C12.7519 39.6046 13.0104 40.4078 12.8763 41.1952L10.3619 56.0079C10.0338 57.9432 10.8059 59.8627 12.3782 61.0166C13.2669 61.6691 14.306 62.0007 15.3529 62C16.1582 62 16.9681 61.804 17.7162 61.4066L30.8823 54.4127C31.5809 54.0417 32.4175 54.0404 33.1174 54.4127L46.2835 61.4066C48.0036 62.3197 50.0492 62.1704 51.6215 61.0166C53.1938 59.8627 53.9659 57.9432 53.6378 56.0079L51.1234 41.1952C50.9893 40.4078 51.2478 39.6046 51.8142 39.0474L62.466 28.5565ZM48.4945 41.6504L51.0089 56.4631C51.1671 57.3946 50.8103 58.282 50.0538 58.8372C49.2979 59.3917 48.3532 59.4621 47.5244 59.0214L34.3583 52.0275C32.8817 51.2434 31.118 51.2434 29.6414 52.0275L16.4753 59.0214C15.6471 59.4621 14.7025 59.3917 13.9459 58.8372C13.1894 58.282 12.8327 57.3946 12.9909 56.4631L15.5052 41.6504C15.7871 39.9888 15.2422 38.2942 14.0475 37.1174L3.3957 26.6272C2.72642 25.9674 2.4992 25.0372 2.78827 24.1386C3.07669 23.2407 3.80195 22.623 4.72644 22.4875L19.4473 20.3266C21.099 20.0832 22.5255 19.0359 23.2625 17.5243L29.8465 4.0469C30.2599 3.20028 31.0653 2.69442 32.0002 2.69442C32.9344 2.69442 33.7398 3.20028 34.1532 4.0469L40.7366 17.5236C41.4742 19.0359 42.9007 20.0832 44.5531 20.3266L59.2726 22.4875C60.1984 22.623 60.923 23.2407 61.2121 24.1393C61.5012 25.0379 61.2739 25.9674 60.604 26.6265L49.9522 37.118C48.7575 38.2942 48.2126 39.9887 48.4945 41.6504Z" fill="white"/>
<path d="M48.4945 41.6504L51.0089 56.4631C51.1671 57.3946 50.8103 58.282 50.0538 58.8372C49.2979 59.3917 48.3532 59.4621 47.5244 59.0214L34.3583 52.0275C32.8817 51.2434 31.118 51.2434 29.6414 52.0275L16.4753 59.0214C15.6471 59.4621 14.7025 59.3917 13.9459 58.8372C13.1894 58.282 12.8327 57.3946 12.9909 56.4631L15.5052 41.6504C15.7871 39.9888 15.2422 38.2942 14.0475 37.1174L3.3957 26.6272C2.72642 25.9674 2.4992 25.0372 2.78827 24.1386C3.07669 23.2407 3.80195 22.623 4.72644 22.4875L19.4473 20.3266C21.099 20.0832 22.5255 19.0359 23.2625 17.5243L29.8465 4.0469C30.2599 3.20028 31.0653 2.69442 32.0002 2.69442C32.9344 2.69442 33.7398 3.20028 34.1532 4.0469L40.7366 17.5236C41.4742 19.0359 42.9007 20.0832 44.5531 20.3266L59.2726 22.4875C60.1984 22.623 60.923 23.2407 61.2121 24.1393C61.5012 25.0379 61.2739 25.9674 60.604 26.6265L49.9522 37.118C48.7575 38.2942 48.2126 39.9887 48.4945 41.6504Z" fill="white"/>
</svg>
